<?xml version="1.0" encoding="UTF-8" standalone="no"?>
<!DOCTYPE svg PUBLIC "-//W3C//DTD SVG 1.1//EN" "http://www.w3.org/Graphics/SVG/1.1/DTD/svg11.dtd">
<svg width="100%" height="100%" viewBox="0 0 1080 1080" version="1.1" xmlns="http://www.w3.org/2000/svg" xmlns:xlink="http://www.w3.org/1999/xlink" xml:space="preserve" xmlns:serif="http://www.serif.com/" style="fill-rule:evenodd;clip-rule:evenodd;stroke-linecap:round;stroke-linejoin:round;stroke-miterlimit:1.5;">
    <g id="box3">
        <path id="box-top" d="M540,449.917L153.888,642.973L540,836.029L926.112,642.973L540,449.917Z" style="fill:url(#_Linear1);"/>
        <path id="box-front" d="M926.112,642.973L540,836.029L540,981.887L926.112,788.831L926.112,642.973Z" style="fill:url(#_Linear2);"/>
        <path id="box-side" d="M540,836.029L153.888,642.973L153.888,788.831L540,981.887L540,836.029Z" style="fill:url(#_Linear3);"/>
        <path id="mask" d="M153.888,642.973L153.888,788.831L540,981.887L926.112,788.831L926.112,642.973L540,449.917L153.888,642.973Z" style="fill:#006bbb;"/>
    </g>
    <g id="box2">
        <path id="box-top1" serif:id="box-top" d="M540,274.015L153.888,467.071L540,660.127L926.112,467.071L540,274.015Z" style="fill:url(#_Linear4);"/>
        <path id="box-front1" serif:id="box-front" d="M926.112,467.071L540,660.127L540,805.985L926.112,612.929L926.112,467.071Z" style="fill:url(#_Linear5);"/>
        <path id="box-side1" serif:id="box-side" d="M540,660.127L153.888,467.071L153.888,612.929L540,805.985L540,660.127Z" style="fill:url(#_Linear6);"/>
        <path id="mask1" serif:id="mask" d="M153.888,467.071L153.888,612.929L540,805.985L926.112,612.929L926.112,467.071L540,274.015L153.888,467.071Z" style="fill:#30a0e3;"/>
    </g>
    <g id="box1">
        <path id="box-top2" serif:id="box-top" d="M540,98.113L153.888,291.169L540,484.225L926.112,291.169L540,98.113Z" style="fill:url(#_Linear7);"/>
        <path id="box-front2" serif:id="box-front" d="M926.112,291.169L540,484.225L540,630.083L926.112,437.027L926.112,291.169Z" style="fill:url(#_Linear8);"/>
        <path id="box-side2" serif:id="box-side" d="M540,484.225L153.888,291.169L153.888,437.027L540,630.083L540,484.225Z" style="fill:url(#_Linear9);"/>
        <path id="mask2" serif:id="mask" d="M153.888,291.169L153.888,437.027L540,630.083L926.112,437.027L926.112,291.169L540,98.113L153.888,291.169Z" style="fill:#ffc872;"/>
    </g>
    <path d="M68.159,235.921L68.159,844.079L540,1080L1011.84,844.079L1011.84,235.921L540,0L68.159,235.921Z" style="fill:none;stroke:#30a0e3;stroke-width:56px;"/>
    <defs>
        <linearGradient id="_Linear1" x1="0" y1="0" x2="1" y2="0" gradientUnits="userSpaceOnUse" gradientTransform="matrix(1.81899e-12,-386.112,772.225,9.09495e-13,540,836.029)"><stop offset="0" style="stop-color:#959595;stop-opacity:1"/><stop offset="1" style="stop-color:#484848;stop-opacity:1"/></linearGradient>
        <linearGradient id="_Linear2" x1="0" y1="0" x2="1" y2="-0.4" gradientUnits="userSpaceOnUse" gradientTransform="matrix(1.57772e-30,145.858,-145.858,72.9292,797.408,707.325)"><stop offset="0" style="stop-color:#a7a7a7;stop-opacity:1"/><stop offset="1" style="stop-color:#757575;stop-opacity:1"/></linearGradient>
        <linearGradient id="_Linear3" x1="0" y1="0" x2="1" y2="0.4" gradientUnits="userSpaceOnUse" gradientTransform="matrix(0,-145.858,145.858,72.9292,346.944,885.359)"><stop offset="0" style="stop-color:#757575;stop-opacity:1"/><stop offset="1" style="stop-color:#a7a7a7;stop-opacity:1"/></linearGradient>
        <linearGradient id="_Linear4" x1="0" y1="0" x2="1" y2="0" gradientUnits="userSpaceOnUse" gradientTransform="matrix(1.76215e-12,-386.112,772.225,9.37916e-13,540,660.127)"><stop offset="0" style="stop-color:#a7a7a7;stop-opacity:1"/><stop offset="0.17" style="stop-color:#919191;stop-opacity:1"/><stop offset="0.37" style="stop-color:#7d7d7d;stop-opacity:1"/><stop offset="1" style="stop-color:#757575;stop-opacity:1"/></linearGradient>
        <linearGradient id="_Linear5" x1="0" y1="0" x2="1" y2="-0.4" gradientUnits="userSpaceOnUse" gradientTransform="matrix(1.57772e-30,145.858,-145.858,72.9292,797.408,531.423)"><stop offset="0" style="stop-color:#a7a7a7;stop-opacity:1"/><stop offset="1" style="stop-color:#757575;stop-opacity:1"/></linearGradient>
        <linearGradient id="_Linear6" x1="0" y1="0" x2="1" y2="0.4" gradientUnits="userSpaceOnUse" gradientTransform="matrix(0,-145.858,145.858,72.9292,346.944,709.457)"><stop offset="0" style="stop-color:#757575;stop-opacity:1"/><stop offset="1" style="stop-color:#a7a7a7;stop-opacity:1"/></linearGradient>
        <linearGradient id="_Linear7" x1="0" y1="0" x2="1" y2="0" gradientUnits="userSpaceOnUse" gradientTransform="matrix(1.81899e-12,-386.112,772.225,9.09495e-13,540,484.225)"><stop offset="0" style="stop-color:#d0d0d0;stop-opacity:1"/><stop offset="0.52" style="stop-color:#c3c3c3;stop-opacity:1"/><stop offset="1" style="stop-color:#9b9b9b;stop-opacity:1"/></linearGradient>
        <linearGradient id="_Linear8" x1="0" y1="0" x2="1" y2="-0.4" gradientUnits="userSpaceOnUse" gradientTransform="matrix(1.57772e-30,145.858,-145.858,72.9292,797.408,355.521)"><stop offset="0" style="stop-color:#a7a7a7;stop-opacity:1"/><stop offset="1" style="stop-color:#757575;stop-opacity:1"/></linearGradient>
        <linearGradient id="_Linear9" x1="0" y1="0" x2="1" y2="0.4" gradientUnits="userSpaceOnUse" gradientTransform="matrix(0,-145.858,145.858,72.9292,346.944,533.555)"><stop offset="0" style="stop-color:#757575;stop-opacity:1"/><stop offset="1" style="stop-color:#a7a7a7;stop-opacity:1"/></linearGradient>
    </defs>
</svg>
